<?xml version="1.0" encoding="UTF-8"?>
<svg id="Layer_1" data-name="Layer 1" xmlns="http://www.w3.org/2000/svg" xmlns:xlink="http://www.w3.org/1999/xlink" viewBox="0 0 300 300">
  <defs>
    <style>
      .cls-1 {
        fill: url(#linear-gradient);
      }
    </style>
    <linearGradient id="linear-gradient" x1="77.72" y1="204.91" x2="222.2" y2="93.13" gradientUnits="userSpaceOnUse">
      <stop offset=".04" stop-color="#48e1ff"/>
      <stop offset="1" stop-color="#5a568d"/>
    </linearGradient>
  </defs>
  <path class="cls-1" d="m252.04,122.29v103.02c-1.14-.95-2.36-1.83-3.42-2.87-6.07-5.94-12.14-11.88-18.15-17.88-7.71-7.69-15.37-15.44-23.06-23.15-.2-.2-.53-.28-.8-.42-.11.24-.28.48-.32.74-1.57,9.45-5.39,17.84-12.16,24.69-9.28,9.39-18.65,18.69-28.08,27.93-6.54,6.41-13.52,12.4-19.81,19.04-7.61,8.03-17.07,6.67-23.56.34-6.36-6.21-12.77-12.36-19.11-18.59-14.33-14.07-28.57-28.22-42.96-42.22-6.49-6.31-12.23-12.35-12.07-22.72.49-32.53.18-65.08.18-97.62,0-.19.07-.38.1-.56.17.11.37.19.52.32,7.88,7.73,15.77,15.44,23.62,23.2,7.56,7.46,15.08,14.97,22.62,22.45.12.12.27.22.4.33.04-.18.11-.36.11-.54.29-9.44,3.73-17.75,10.16-24.44,9.18-9.56,18.88-18.62,28.36-27.89,7.16-7,14.41-13.91,21.46-21.02,5.42-5.47,15.69-6.08,21.01-.95,6.28,6.07,12.55,12.14,18.78,18.27,15.14,14.89,30.31,29.75,45.34,44.75,4.34,4.32,9.81,7.98,10.45,14.95.03.29.26.57.39.85Zm-133.8-11.69c-7.51,0-13.88,2.33-20.65,8.09-.21.17-.27.91-.1,1.07,11.33,11.19,22.68,22.36,34.05,33.52,7.16,7.03,14.48,13.9,21.48,21.08,6.25,6.42,13.2,11.5,22.15,13.18,10.89,2.05,20.92.22,29.52-7.2.21-.18.24-.95.05-1.13-7.35-7.21-14.77-14.36-22.11-21.58-11.28-11.1-22.57-22.19-33.74-33.4-8.16-8.18-17.36-13.91-30.65-13.63Z"/>
  <path d="m252.04,121.76s-.03-.06-.04-.1c0,0,.03-.02.04-.04v.13Z"/>
</svg>